# xmcd CD database file
#
# Track frame offsets:
#	150
#	25657
#	52105
#	77360
#	106452
#	151615
#	189042
#	216285
#	244455
#	271502
#
# Disc length: 3879 seconds
#
# Revision: 0
# Processed by: cddbd v1.4PL0 Copyright (c) Steve Scherf et al.
# Submitted via: CDex 1.51
#
DISCID=730f250a
DTITLE=Jazz and Tzaz - 121 - 10 Jazz and Tzaz Favorites
DYEAR=2003
DGENRE=Jazz
TTITLE0=Mode Plagal - Florina
TTITLE1=Vaggelis Katsoulis - Whispers of Darkness
TTITLE2=Dimos Dimitriadis - Five-Penny Song
TTITLE3=Eleni Karaindrou - Blues
TTITLE4=Kyriakos Sfetsas - Samarina
TTITLE5=Lito Vogiatzoglou - Tili Tili Tili
TTITLE6=Manolis Mikelis - Love for Sale
TTITLE7=Nana Simopoulou - Mitoon
TTITLE8=Pantelis Karagiorgis - Straight Blues
TTITLE9=Sakis Papadimitriou - Floros Floridis - Peripou Kalamatianos
EXTD=YEAR: 2003
EXTT0=
EXTT1=
EXTT2=
EXTT3=
EXTT4=
EXTT5=
EXTT6=
EXTT7=
EXTT8=
EXTT9=
PLAYORDER=
